<mxfile host="app.diagrams.net" modified="2024-05-20T18:45:47.785Z" agent="Mozilla/5.0 (X11; Linux x86_64; rv:109.0) Gecko/20100101 Firefox/115.0" etag="MnGSEG7EPcEkykG-hcOS" version="24.4.4" type="github" pages="2">
  <diagram name="APB MMU RegMap" id="DrLnBsjFnaRuIujhH_x-">
    <mxGraphModel dx="1434" dy="844" grid="1" gridSize="10" guides="1" tooltips="1" connect="1" arrows="1" fold="1" page="1" pageScale="1" pageWidth="850" pageHeight="1100" math="0" shadow="0">
      <root>
        <mxCell id="0" />
        <mxCell id="1" parent="0" />
        <mxCell id="X3KNa_CepXRgLISpwKy6-1" value="8 bits - x11" style="rounded=0;whiteSpace=wrap;html=1;" vertex="1" parent="1">
          <mxGeometry x="160" y="440" width="120" height="40" as="geometry" />
        </mxCell>
        <mxCell id="X3KNa_CepXRgLISpwKy6-2" value="8 bits - x21" style="rounded=0;whiteSpace=wrap;html=1;" vertex="1" parent="1">
          <mxGeometry x="280" y="440" width="120" height="40" as="geometry" />
        </mxCell>
        <mxCell id="X3KNa_CepXRgLISpwKy6-3" value="8 bits - x31" style="rounded=0;whiteSpace=wrap;html=1;" vertex="1" parent="1">
          <mxGeometry x="400" y="440" width="120" height="40" as="geometry" />
        </mxCell>
        <mxCell id="X3KNa_CepXRgLISpwKy6-4" value="8 bits - x41" style="rounded=0;whiteSpace=wrap;html=1;" vertex="1" parent="1">
          <mxGeometry x="520" y="440" width="120" height="40" as="geometry" />
        </mxCell>
        <mxCell id="X3KNa_CepXRgLISpwKy6-5" value="Input data registers - indata_reg - 64x32 bits" style="text;html=1;align=left;verticalAlign=middle;resizable=0;points=[];autosize=1;strokeColor=none;fillColor=none;" vertex="1" parent="1">
          <mxGeometry x="160" y="410" width="260" height="30" as="geometry" />
        </mxCell>
        <mxCell id="X3KNa_CepXRgLISpwKy6-6" value="&lt;div&gt;x1A10_3100&lt;/div&gt;&lt;div&gt;x1A10_31FF&lt;/div&gt;" style="text;html=1;align=center;verticalAlign=middle;resizable=0;points=[];autosize=1;strokeColor=none;fillColor=none;" vertex="1" parent="1">
          <mxGeometry x="640" y="440" width="90" height="40" as="geometry" />
        </mxCell>
        <mxCell id="X3KNa_CepXRgLISpwKy6-7" value="28 bits - xxxxx" style="rounded=0;whiteSpace=wrap;html=1;" vertex="1" parent="1">
          <mxGeometry x="160" y="200" width="340" height="40" as="geometry" />
        </mxCell>
        <mxCell id="X3KNa_CepXRgLISpwKy6-8" value="&lt;font style=&quot;font-size: 11px;&quot;&gt;3 bit - number of input matrices&lt;br&gt;&lt;/font&gt;" style="rounded=0;whiteSpace=wrap;html=1;" vertex="1" parent="1">
          <mxGeometry x="500" y="200" width="100" height="40" as="geometry" />
        </mxCell>
        <mxCell id="X3KNa_CepXRgLISpwKy6-9" value="1 bit - start" style="rounded=0;whiteSpace=wrap;html=1;" vertex="1" parent="1">
          <mxGeometry x="600" y="200" width="40" height="40" as="geometry" />
        </mxCell>
        <mxCell id="X3KNa_CepXRgLISpwKy6-10" value="Control register - ctrl_reg - 1x32 bits" style="text;html=1;align=left;verticalAlign=middle;resizable=0;points=[];autosize=1;strokeColor=none;fillColor=none;" vertex="1" parent="1">
          <mxGeometry x="160" y="170" width="210" height="30" as="geometry" />
        </mxCell>
        <mxCell id="X3KNa_CepXRgLISpwKy6-11" value="&lt;div&gt;x1A10_3000&lt;/div&gt;" style="text;html=1;align=center;verticalAlign=middle;resizable=0;points=[];autosize=1;strokeColor=none;fillColor=none;" vertex="1" parent="1">
          <mxGeometry x="640" y="205" width="90" height="30" as="geometry" />
        </mxCell>
        <mxCell id="X3KNa_CepXRgLISpwKy6-12" value="30 bits - not used" style="rounded=0;whiteSpace=wrap;html=1;" vertex="1" parent="1">
          <mxGeometry x="160" y="320" width="400" height="40" as="geometry" />
        </mxCell>
        <mxCell id="X3KNa_CepXRgLISpwKy6-13" value="&lt;div&gt;1 bit -&amp;nbsp;&lt;/div&gt;&lt;div&gt;error&lt;/div&gt;" style="rounded=0;whiteSpace=wrap;html=1;" vertex="1" parent="1">
          <mxGeometry x="560" y="320" width="40" height="40" as="geometry" />
        </mxCell>
        <mxCell id="X3KNa_CepXRgLISpwKy6-14" value="1 bit - done" style="rounded=0;whiteSpace=wrap;html=1;" vertex="1" parent="1">
          <mxGeometry x="600" y="320" width="40" height="40" as="geometry" />
        </mxCell>
        <mxCell id="X3KNa_CepXRgLISpwKy6-15" value="Status register - status_reg - 1x32 bits" style="text;html=1;align=left;verticalAlign=middle;resizable=0;points=[];autosize=1;strokeColor=none;fillColor=none;" vertex="1" parent="1">
          <mxGeometry x="160" y="290" width="230" height="30" as="geometry" />
        </mxCell>
        <mxCell id="X3KNa_CepXRgLISpwKy6-16" value="&lt;div&gt;x1A10_3004&lt;/div&gt;" style="text;html=1;align=center;verticalAlign=middle;resizable=0;points=[];autosize=1;strokeColor=none;fillColor=none;" vertex="1" parent="1">
          <mxGeometry x="640" y="325" width="90" height="30" as="geometry" />
        </mxCell>
        <mxCell id="X3KNa_CepXRgLISpwKy6-17" value="0" style="text;html=1;align=center;verticalAlign=middle;resizable=0;points=[];autosize=1;strokeColor=none;fillColor=none;" vertex="1" parent="1">
          <mxGeometry x="610" y="480" width="30" height="30" as="geometry" />
        </mxCell>
        <mxCell id="X3KNa_CepXRgLISpwKy6-18" value="7" style="text;html=1;align=center;verticalAlign=middle;resizable=0;points=[];autosize=1;strokeColor=none;fillColor=none;" vertex="1" parent="1">
          <mxGeometry x="520" y="480" width="30" height="30" as="geometry" />
        </mxCell>
        <mxCell id="X3KNa_CepXRgLISpwKy6-19" value="15" style="text;html=1;align=center;verticalAlign=middle;resizable=0;points=[];autosize=1;strokeColor=none;fillColor=none;" vertex="1" parent="1">
          <mxGeometry x="395" y="480" width="40" height="30" as="geometry" />
        </mxCell>
        <mxCell id="X3KNa_CepXRgLISpwKy6-20" value="8" style="text;html=1;align=center;verticalAlign=middle;resizable=0;points=[];autosize=1;strokeColor=none;fillColor=none;" vertex="1" parent="1">
          <mxGeometry x="490" y="480" width="30" height="30" as="geometry" />
        </mxCell>
        <mxCell id="X3KNa_CepXRgLISpwKy6-21" value="23" style="text;html=1;align=center;verticalAlign=middle;resizable=0;points=[];autosize=1;strokeColor=none;fillColor=none;" vertex="1" parent="1">
          <mxGeometry x="275" y="480" width="40" height="30" as="geometry" />
        </mxCell>
        <mxCell id="X3KNa_CepXRgLISpwKy6-22" value="16" style="text;html=1;align=center;verticalAlign=middle;resizable=0;points=[];autosize=1;strokeColor=none;fillColor=none;" vertex="1" parent="1">
          <mxGeometry x="365" y="480" width="40" height="30" as="geometry" />
        </mxCell>
        <mxCell id="X3KNa_CepXRgLISpwKy6-23" value="31" style="text;html=1;align=center;verticalAlign=middle;resizable=0;points=[];autosize=1;strokeColor=none;fillColor=none;" vertex="1" parent="1">
          <mxGeometry x="155" y="480" width="40" height="30" as="geometry" />
        </mxCell>
        <mxCell id="X3KNa_CepXRgLISpwKy6-24" value="24" style="text;html=1;align=center;verticalAlign=middle;resizable=0;points=[];autosize=1;strokeColor=none;fillColor=none;" vertex="1" parent="1">
          <mxGeometry x="245" y="480" width="40" height="30" as="geometry" />
        </mxCell>
        <mxCell id="X3KNa_CepXRgLISpwKy6-25" value="0" style="text;html=1;align=center;verticalAlign=middle;resizable=0;points=[];autosize=1;strokeColor=none;fillColor=none;" vertex="1" parent="1">
          <mxGeometry x="610" y="170" width="30" height="30" as="geometry" />
        </mxCell>
        <mxCell id="X3KNa_CepXRgLISpwKy6-26" value="1" style="text;html=1;align=center;verticalAlign=middle;resizable=0;points=[];autosize=1;strokeColor=none;fillColor=none;" vertex="1" parent="1">
          <mxGeometry x="570" y="170" width="30" height="30" as="geometry" />
        </mxCell>
        <mxCell id="X3KNa_CepXRgLISpwKy6-27" value="3" style="text;html=1;align=center;verticalAlign=middle;resizable=0;points=[];autosize=1;strokeColor=none;fillColor=none;" vertex="1" parent="1">
          <mxGeometry x="500" y="170" width="30" height="30" as="geometry" />
        </mxCell>
        <mxCell id="X3KNa_CepXRgLISpwKy6-28" value="0" style="text;html=1;align=center;verticalAlign=middle;resizable=0;points=[];autosize=1;strokeColor=none;fillColor=none;" vertex="1" parent="1">
          <mxGeometry x="610" y="290" width="30" height="30" as="geometry" />
        </mxCell>
        <mxCell id="X3KNa_CepXRgLISpwKy6-29" value="1" style="text;html=1;align=center;verticalAlign=middle;resizable=0;points=[];autosize=1;strokeColor=none;fillColor=none;" vertex="1" parent="1">
          <mxGeometry x="570" y="290" width="30" height="30" as="geometry" />
        </mxCell>
        <mxCell id="X3KNa_CepXRgLISpwKy6-30" value="14 bits - not used" style="rounded=0;whiteSpace=wrap;html=1;" vertex="1" parent="1">
          <mxGeometry x="160" y="560" width="150" height="40" as="geometry" />
        </mxCell>
        <mxCell id="X3KNa_CepXRgLISpwKy6-31" value="18 bits - p11" style="rounded=0;whiteSpace=wrap;html=1;" vertex="1" parent="1">
          <mxGeometry x="310" y="560" width="330" height="40" as="geometry" />
        </mxCell>
        <mxCell id="X3KNa_CepXRgLISpwKy6-32" value="Output data registers - outdata_reg - 160x32 bits" style="text;html=1;align=left;verticalAlign=middle;resizable=0;points=[];autosize=1;strokeColor=none;fillColor=none;" vertex="1" parent="1">
          <mxGeometry x="160" y="530" width="280" height="30" as="geometry" />
        </mxCell>
        <mxCell id="X3KNa_CepXRgLISpwKy6-33" value="&lt;div&gt;x1A10_3200&lt;/div&gt;&lt;div&gt;x1A10_3480&lt;/div&gt;" style="text;html=1;align=center;verticalAlign=middle;resizable=0;points=[];autosize=1;strokeColor=none;fillColor=none;" vertex="1" parent="1">
          <mxGeometry x="640" y="560" width="90" height="40" as="geometry" />
        </mxCell>
        <mxCell id="X3KNa_CepXRgLISpwKy6-34" value="0" style="text;html=1;align=center;verticalAlign=middle;resizable=0;points=[];autosize=1;strokeColor=none;fillColor=none;" vertex="1" parent="1">
          <mxGeometry x="610" y="600" width="30" height="30" as="geometry" />
        </mxCell>
        <mxCell id="X3KNa_CepXRgLISpwKy6-35" value="18" style="text;html=1;align=center;verticalAlign=middle;resizable=0;points=[];autosize=1;strokeColor=none;fillColor=none;" vertex="1" parent="1">
          <mxGeometry x="275" y="600" width="40" height="30" as="geometry" />
        </mxCell>
        <mxCell id="X3KNa_CepXRgLISpwKy6-36" value="17" style="text;html=1;align=center;verticalAlign=middle;resizable=0;points=[];autosize=1;strokeColor=none;fillColor=none;" vertex="1" parent="1">
          <mxGeometry x="310" y="600" width="40" height="30" as="geometry" />
        </mxCell>
        <mxCell id="X3KNa_CepXRgLISpwKy6-37" value="31" style="text;html=1;align=center;verticalAlign=middle;resizable=0;points=[];autosize=1;strokeColor=none;fillColor=none;" vertex="1" parent="1">
          <mxGeometry x="155" y="600" width="40" height="30" as="geometry" />
        </mxCell>
        <mxCell id="X3KNa_CepXRgLISpwKy6-38" value="&lt;div&gt;Software operation:&lt;/div&gt;&lt;div&gt;&lt;ul&gt;&lt;li&gt;set the input data registers by sending input matrix elements. Each element is assumed to be&lt;br&gt;8 bits, unsigned. 4 elements are stored per register. The sequence of the elements should be&lt;br&gt;column-wise - x11, x21, x31... At least 8 registers should be loaded - corresponding to 32 &lt;br&gt;elements, one 4x8 matrix size&lt;br&gt;&lt;/li&gt;&lt;li&gt;set the number of input matrices in ctrl_reg[3:1]. The max number of matrices that can be loaded&lt;br&gt;and calculated at one time is 7.&lt;/li&gt;&lt;li&gt;set the start flag in ctrl_reg[0] to initiate MMU&lt;br&gt;&lt;/li&gt;&lt;li&gt;wait until done bit in status_reg[0] or error bit in status_reg[1] are set&lt;br&gt;&lt;/li&gt;&lt;/ul&gt;&lt;/div&gt;" style="text;html=1;align=left;verticalAlign=middle;resizable=0;points=[];autosize=1;strokeColor=none;fillColor=none;" vertex="1" parent="1">
          <mxGeometry x="160" y="660" width="580" height="180" as="geometry" />
        </mxCell>
      </root>
    </mxGraphModel>
  </diagram>
  <diagram id="yuAJjKsihgLR2WHk-iYW" name="APB MMU ASMD">
    <mxGraphModel dx="1434" dy="844" grid="1" gridSize="10" guides="1" tooltips="1" connect="1" arrows="1" fold="1" page="1" pageScale="1" pageWidth="850" pageHeight="1100" math="0" shadow="0">
      <root>
        <mxCell id="0" />
        <mxCell id="1" parent="0" />
        <mxCell id="RGxAlzRRs4kPGmVKdSH3-1" value="" style="rounded=0;whiteSpace=wrap;html=1;fillColor=none;dashed=1;" vertex="1" parent="1">
          <mxGeometry x="490" y="698.5" width="350" height="273" as="geometry" />
        </mxCell>
        <mxCell id="RGxAlzRRs4kPGmVKdSH3-2" value="" style="rounded=0;whiteSpace=wrap;html=1;fillColor=none;dashed=1;" vertex="1" parent="1">
          <mxGeometry x="490" y="260" width="290" height="420" as="geometry" />
        </mxCell>
        <mxCell id="RGxAlzRRs4kPGmVKdSH3-3" value="" style="rounded=0;whiteSpace=wrap;html=1;fillColor=none;dashed=1;" vertex="1" parent="1">
          <mxGeometry x="44" y="30" width="406" height="250" as="geometry" />
        </mxCell>
        <mxCell id="RGxAlzRRs4kPGmVKdSH3-4" value="" style="rounded=0;whiteSpace=wrap;html=1;fillColor=none;dashed=1;" vertex="1" parent="1">
          <mxGeometry x="44" y="320" width="406" height="260" as="geometry" />
        </mxCell>
        <mxCell id="RGxAlzRRs4kPGmVKdSH3-5" value="" style="rounded=0;whiteSpace=wrap;html=1;fillColor=none;dashed=1;" vertex="1" parent="1">
          <mxGeometry x="44" y="600" width="406" height="470" as="geometry" />
        </mxCell>
        <mxCell id="RGxAlzRRs4kPGmVKdSH3-6" value="" style="edgeStyle=orthogonalEdgeStyle;rounded=0;orthogonalLoop=1;jettySize=auto;html=1;" edge="1" parent="1" source="RGxAlzRRs4kPGmVKdSH3-7" target="RGxAlzRRs4kPGmVKdSH3-10">
          <mxGeometry relative="1" as="geometry" />
        </mxCell>
        <mxCell id="RGxAlzRRs4kPGmVKdSH3-7" value="&lt;div&gt;valid_input &amp;lt;= &#39;0&#39;&lt;/div&gt;&lt;div&gt;read_ram &amp;lt;= &#39;0&#39;&lt;/div&gt;&lt;div&gt;cnt &amp;lt;= &#39;0&#39;&lt;/div&gt;&lt;div&gt;input_data &amp;lt;= &#39;0&#39;&lt;/div&gt;&lt;div&gt;num_mat &amp;lt;= ctrl_reg[3:1]&lt;/div&gt;&lt;div&gt;clear_start_bit = 0&lt;br&gt;&lt;/div&gt;" style="rounded=0;whiteSpace=wrap;html=1;" vertex="1" parent="1">
          <mxGeometry x="177" y="47" width="154" height="100" as="geometry" />
        </mxCell>
        <mxCell id="RGxAlzRRs4kPGmVKdSH3-8" value="" style="edgeStyle=orthogonalEdgeStyle;rounded=0;orthogonalLoop=1;jettySize=auto;html=1;" edge="1" parent="1" source="RGxAlzRRs4kPGmVKdSH3-10" target="RGxAlzRRs4kPGmVKdSH3-12">
          <mxGeometry relative="1" as="geometry" />
        </mxCell>
        <mxCell id="RGxAlzRRs4kPGmVKdSH3-9" value="True" style="edgeLabel;html=1;align=center;verticalAlign=middle;resizable=0;points=[];" vertex="1" connectable="0" parent="RGxAlzRRs4kPGmVKdSH3-8">
          <mxGeometry x="-0.2286" y="-2" relative="1" as="geometry">
            <mxPoint as="offset" />
          </mxGeometry>
        </mxCell>
        <mxCell id="RGxAlzRRs4kPGmVKdSH3-10" value="ctrl_reg[0] == &#39;1&#39; &amp;amp;&amp;amp; num_mat != 0" style="shape=hexagon;perimeter=hexagonPerimeter2;whiteSpace=wrap;html=1;fixedSize=1;rounded=0;" vertex="1" parent="1">
          <mxGeometry x="191.5" y="197" width="125" height="70" as="geometry" />
        </mxCell>
        <mxCell id="RGxAlzRRs4kPGmVKdSH3-11" value="" style="edgeStyle=orthogonalEdgeStyle;rounded=0;orthogonalLoop=1;jettySize=auto;html=1;" edge="1" parent="1" source="RGxAlzRRs4kPGmVKdSH3-12" target="RGxAlzRRs4kPGmVKdSH3-17">
          <mxGeometry relative="1" as="geometry" />
        </mxCell>
        <mxCell id="RGxAlzRRs4kPGmVKdSH3-12" value="&lt;div&gt;valid_input &amp;lt;= &#39;1&#39;&lt;/div&gt;&lt;div&gt;read_ram &amp;lt;= &#39;0&#39;&lt;/div&gt;&lt;div&gt;input_data &amp;lt;= indata_reg[cnt_reg[7:2]][(24-(cnt_reg[1:0]&amp;lt;&amp;lt;3)) +: 8]&lt;/div&gt;&lt;div&gt;clear_start_bit = 1&lt;br&gt;&lt;/div&gt;&lt;div&gt;cnt++&lt;br&gt;&lt;/div&gt;" style="whiteSpace=wrap;html=1;rounded=0;" vertex="1" parent="1">
          <mxGeometry x="69" y="350" width="370" height="87" as="geometry" />
        </mxCell>
        <mxCell id="RGxAlzRRs4kPGmVKdSH3-13" style="edgeStyle=orthogonalEdgeStyle;rounded=0;orthogonalLoop=1;jettySize=auto;html=1;entryX=0;entryY=0.5;entryDx=0;entryDy=0;" edge="1" parent="1" source="RGxAlzRRs4kPGmVKdSH3-17" target="RGxAlzRRs4kPGmVKdSH3-12">
          <mxGeometry relative="1" as="geometry">
            <Array as="points">
              <mxPoint x="49" y="512" />
              <mxPoint x="49" y="394" />
            </Array>
          </mxGeometry>
        </mxCell>
        <mxCell id="RGxAlzRRs4kPGmVKdSH3-14" value="False" style="edgeLabel;html=1;align=center;verticalAlign=middle;resizable=0;points=[];" vertex="1" connectable="0" parent="RGxAlzRRs4kPGmVKdSH3-13">
          <mxGeometry x="-0.6073" y="4" relative="1" as="geometry">
            <mxPoint as="offset" />
          </mxGeometry>
        </mxCell>
        <mxCell id="RGxAlzRRs4kPGmVKdSH3-15" value="" style="edgeStyle=orthogonalEdgeStyle;rounded=0;orthogonalLoop=1;jettySize=auto;html=1;" edge="1" parent="1" source="RGxAlzRRs4kPGmVKdSH3-17" target="RGxAlzRRs4kPGmVKdSH3-19">
          <mxGeometry relative="1" as="geometry" />
        </mxCell>
        <mxCell id="RGxAlzRRs4kPGmVKdSH3-16" value="True" style="edgeLabel;html=1;align=center;verticalAlign=middle;resizable=0;points=[];" vertex="1" connectable="0" parent="RGxAlzRRs4kPGmVKdSH3-15">
          <mxGeometry x="-0.6533" y="1" relative="1" as="geometry">
            <mxPoint x="-1" y="7" as="offset" />
          </mxGeometry>
        </mxCell>
        <mxCell id="RGxAlzRRs4kPGmVKdSH3-17" value="cnt[4:0] == 31" style="shape=hexagon;perimeter=hexagonPerimeter2;whiteSpace=wrap;html=1;fixedSize=1;rounded=0;" vertex="1" parent="1">
          <mxGeometry x="194" y="487" width="120" height="50" as="geometry" />
        </mxCell>
        <mxCell id="RGxAlzRRs4kPGmVKdSH3-18" value="" style="edgeStyle=orthogonalEdgeStyle;rounded=0;orthogonalLoop=1;jettySize=auto;html=1;" edge="1" parent="1" source="RGxAlzRRs4kPGmVKdSH3-19" target="RGxAlzRRs4kPGmVKdSH3-24">
          <mxGeometry relative="1" as="geometry" />
        </mxCell>
        <mxCell id="RGxAlzRRs4kPGmVKdSH3-19" value="&lt;div&gt;valid_input &amp;lt;= &#39;0&#39;&lt;/div&gt;&lt;div&gt;read_ram &amp;lt;= &#39;0&#39;&lt;/div&gt;&lt;div&gt;input_data &amp;lt;=&#39;0&#39;&lt;/div&gt;&lt;div&gt;clear_start_bit = 0&lt;br&gt;&lt;/div&gt;" style="whiteSpace=wrap;html=1;rounded=0;" vertex="1" parent="1">
          <mxGeometry x="149" y="630" width="210" height="75" as="geometry" />
        </mxCell>
        <mxCell id="RGxAlzRRs4kPGmVKdSH3-20" style="edgeStyle=orthogonalEdgeStyle;rounded=0;orthogonalLoop=1;jettySize=auto;html=1;entryX=0;entryY=0.5;entryDx=0;entryDy=0;" edge="1" parent="1" source="RGxAlzRRs4kPGmVKdSH3-24" target="RGxAlzRRs4kPGmVKdSH3-19">
          <mxGeometry relative="1" as="geometry">
            <Array as="points">
              <mxPoint x="89" y="795" />
              <mxPoint x="89" y="668" />
            </Array>
          </mxGeometry>
        </mxCell>
        <mxCell id="RGxAlzRRs4kPGmVKdSH3-21" value="False" style="edgeLabel;html=1;align=center;verticalAlign=middle;resizable=0;points=[];" vertex="1" connectable="0" parent="RGxAlzRRs4kPGmVKdSH3-20">
          <mxGeometry x="-0.8427" y="-3" relative="1" as="geometry">
            <mxPoint as="offset" />
          </mxGeometry>
        </mxCell>
        <mxCell id="RGxAlzRRs4kPGmVKdSH3-22" value="" style="edgeStyle=orthogonalEdgeStyle;rounded=0;orthogonalLoop=1;jettySize=auto;html=1;entryX=0.5;entryY=0;entryDx=0;entryDy=0;" edge="1" parent="1" source="RGxAlzRRs4kPGmVKdSH3-24" target="RGxAlzRRs4kPGmVKdSH3-33">
          <mxGeometry relative="1" as="geometry">
            <mxPoint x="254" y="910" as="targetPoint" />
          </mxGeometry>
        </mxCell>
        <mxCell id="RGxAlzRRs4kPGmVKdSH3-23" value="True" style="edgeLabel;html=1;align=center;verticalAlign=middle;resizable=0;points=[];" vertex="1" connectable="0" parent="RGxAlzRRs4kPGmVKdSH3-22">
          <mxGeometry x="-0.4992" relative="1" as="geometry">
            <mxPoint as="offset" />
          </mxGeometry>
        </mxCell>
        <mxCell id="RGxAlzRRs4kPGmVKdSH3-24" value="finish == &#39;1&#39;" style="shape=hexagon;perimeter=hexagonPerimeter2;whiteSpace=wrap;html=1;fixedSize=1;rounded=0;" vertex="1" parent="1">
          <mxGeometry x="194" y="765" width="120" height="60" as="geometry" />
        </mxCell>
        <mxCell id="RGxAlzRRs4kPGmVKdSH3-25" style="edgeStyle=orthogonalEdgeStyle;rounded=0;orthogonalLoop=1;jettySize=auto;html=1;entryX=0.5;entryY=0;entryDx=0;entryDy=0;" edge="1" parent="1" source="RGxAlzRRs4kPGmVKdSH3-26" target="RGxAlzRRs4kPGmVKdSH3-38">
          <mxGeometry relative="1" as="geometry">
            <mxPoint x="650" y="450" as="targetPoint" />
          </mxGeometry>
        </mxCell>
        <mxCell id="RGxAlzRRs4kPGmVKdSH3-26" value="&lt;div&gt;valid_input &amp;lt;= &#39;0&#39;&lt;/div&gt;&lt;div&gt;read_ram &amp;lt;= &#39;1&#39;&lt;/div&gt;&lt;div&gt;input_data &amp;lt;= 0&lt;/div&gt;" style="whiteSpace=wrap;html=1;rounded=0;" vertex="1" parent="1">
          <mxGeometry x="540" y="320" width="220" height="80" as="geometry" />
        </mxCell>
        <mxCell id="RGxAlzRRs4kPGmVKdSH3-27" value="&lt;font style=&quot;font-size: 17px;&quot;&gt;&lt;b&gt;IDLE&lt;/b&gt;&lt;/font&gt;" style="text;html=1;align=center;verticalAlign=middle;resizable=0;points=[];autosize=1;strokeColor=none;fillColor=none;" vertex="1" parent="1">
          <mxGeometry x="44" y="30" width="60" height="30" as="geometry" />
        </mxCell>
        <mxCell id="RGxAlzRRs4kPGmVKdSH3-28" value="&lt;font size=&quot;1&quot;&gt;&lt;b style=&quot;font-size: 17px;&quot;&gt;GIVE_INPUT&lt;/b&gt;&lt;/font&gt;" style="text;html=1;align=center;verticalAlign=middle;resizable=0;points=[];autosize=1;strokeColor=none;fillColor=none;" vertex="1" parent="1">
          <mxGeometry x="44" y="320" width="120" height="30" as="geometry" />
        </mxCell>
        <mxCell id="RGxAlzRRs4kPGmVKdSH3-29" value="&lt;b&gt;&lt;font style=&quot;font-size: 17px;&quot;&gt;WAIT_CALC&lt;/font&gt;&lt;/b&gt;" style="text;html=1;align=center;verticalAlign=middle;resizable=0;points=[];autosize=1;strokeColor=none;fillColor=none;" vertex="1" parent="1">
          <mxGeometry x="44" y="600" width="120" height="30" as="geometry" />
        </mxCell>
        <mxCell id="RGxAlzRRs4kPGmVKdSH3-30" style="edgeStyle=orthogonalEdgeStyle;rounded=0;orthogonalLoop=1;jettySize=auto;html=1;exitX=1;exitY=0.5;exitDx=0;exitDy=0;entryX=0;entryY=0.5;entryDx=0;entryDy=0;" edge="1" parent="1" source="RGxAlzRRs4kPGmVKdSH3-57" target="RGxAlzRRs4kPGmVKdSH3-26">
          <mxGeometry relative="1" as="geometry">
            <mxPoint x="30" y="170" as="targetPoint" />
            <mxPoint x="194" y="1040" as="sourcePoint" />
            <Array as="points">
              <mxPoint x="470" y="360" />
            </Array>
          </mxGeometry>
        </mxCell>
        <mxCell id="RGxAlzRRs4kPGmVKdSH3-31" style="edgeStyle=orthogonalEdgeStyle;rounded=0;orthogonalLoop=1;jettySize=auto;html=1;entryX=0.5;entryY=0;entryDx=0;entryDy=0;" edge="1" parent="1" source="RGxAlzRRs4kPGmVKdSH3-33" target="RGxAlzRRs4kPGmVKdSH3-35">
          <mxGeometry relative="1" as="geometry" />
        </mxCell>
        <mxCell id="RGxAlzRRs4kPGmVKdSH3-32" value="True" style="edgeLabel;html=1;align=center;verticalAlign=middle;resizable=0;points=[];" vertex="1" connectable="0" parent="RGxAlzRRs4kPGmVKdSH3-31">
          <mxGeometry x="-0.4615" y="-3" relative="1" as="geometry">
            <mxPoint x="3" y="10" as="offset" />
          </mxGeometry>
        </mxCell>
        <mxCell id="RGxAlzRRs4kPGmVKdSH3-33" value="num_mat &amp;gt; 1" style="shape=hexagon;perimeter=hexagonPerimeter2;whiteSpace=wrap;html=1;fixedSize=1;" vertex="1" parent="1">
          <mxGeometry x="194" y="895" width="120" height="50" as="geometry" />
        </mxCell>
        <mxCell id="RGxAlzRRs4kPGmVKdSH3-34" style="edgeStyle=orthogonalEdgeStyle;rounded=0;orthogonalLoop=1;jettySize=auto;html=1;exitX=0;exitY=0.5;exitDx=0;exitDy=0;" edge="1" parent="1" source="RGxAlzRRs4kPGmVKdSH3-35">
          <mxGeometry relative="1" as="geometry">
            <Array as="points">
              <mxPoint x="30" y="1030" />
              <mxPoint x="30" y="380" />
              <mxPoint x="69" y="380" />
            </Array>
            <mxPoint x="70" y="380" as="targetPoint" />
          </mxGeometry>
        </mxCell>
        <mxCell id="RGxAlzRRs4kPGmVKdSH3-35" value="num_mat--;" style="rounded=1;whiteSpace=wrap;html=1;" vertex="1" parent="1">
          <mxGeometry x="194" y="1000" width="120" height="60" as="geometry" />
        </mxCell>
        <mxCell id="RGxAlzRRs4kPGmVKdSH3-36" style="edgeStyle=orthogonalEdgeStyle;rounded=0;orthogonalLoop=1;jettySize=auto;html=1;entryX=0.5;entryY=0;entryDx=0;entryDy=0;" edge="1" parent="1" source="RGxAlzRRs4kPGmVKdSH3-38" target="RGxAlzRRs4kPGmVKdSH3-54">
          <mxGeometry relative="1" as="geometry">
            <mxPoint x="650" y="570" as="targetPoint" />
          </mxGeometry>
        </mxCell>
        <mxCell id="RGxAlzRRs4kPGmVKdSH3-37" value="True" style="edgeLabel;html=1;align=center;verticalAlign=middle;resizable=0;points=[];" vertex="1" connectable="0" parent="RGxAlzRRs4kPGmVKdSH3-36">
          <mxGeometry x="-0.3095" y="1" relative="1" as="geometry">
            <mxPoint as="offset" />
          </mxGeometry>
        </mxCell>
        <mxCell id="RGxAlzRRs4kPGmVKdSH3-38" value="read_data_out != 0" style="shape=hexagon;perimeter=hexagonPerimeter2;whiteSpace=wrap;html=1;fixedSize=1;" vertex="1" parent="1">
          <mxGeometry x="590" y="450" width="120" height="60" as="geometry" />
        </mxCell>
        <mxCell id="RGxAlzRRs4kPGmVKdSH3-39" style="edgeStyle=orthogonalEdgeStyle;rounded=0;orthogonalLoop=1;jettySize=auto;html=1;entryX=0.068;entryY=1.033;entryDx=0;entryDy=0;entryPerimeter=0;" edge="1" parent="1" source="RGxAlzRRs4kPGmVKdSH3-38" target="RGxAlzRRs4kPGmVKdSH3-26">
          <mxGeometry relative="1" as="geometry">
            <Array as="points">
              <mxPoint x="555" y="480" />
            </Array>
          </mxGeometry>
        </mxCell>
        <mxCell id="RGxAlzRRs4kPGmVKdSH3-40" value="False" style="edgeLabel;html=1;align=center;verticalAlign=middle;resizable=0;points=[];" vertex="1" connectable="0" parent="RGxAlzRRs4kPGmVKdSH3-39">
          <mxGeometry x="-0.5455" y="1" relative="1" as="geometry">
            <mxPoint as="offset" />
          </mxGeometry>
        </mxCell>
        <mxCell id="RGxAlzRRs4kPGmVKdSH3-41" style="edgeStyle=orthogonalEdgeStyle;rounded=0;orthogonalLoop=1;jettySize=auto;html=1;entryX=0.5;entryY=0;entryDx=0;entryDy=0;" edge="1" parent="1" source="RGxAlzRRs4kPGmVKdSH3-42" target="RGxAlzRRs4kPGmVKdSH3-46">
          <mxGeometry relative="1" as="geometry">
            <mxPoint x="610" y="845" as="targetPoint" />
          </mxGeometry>
        </mxCell>
        <mxCell id="RGxAlzRRs4kPGmVKdSH3-42" value="&lt;div&gt;outdata_reg[cnt] &amp;lt;= read_data_out&lt;/div&gt;&lt;div&gt;cnt++&lt;br&gt;&lt;/div&gt;" style="whiteSpace=wrap;html=1;rounded=0;" vertex="1" parent="1">
          <mxGeometry x="500" y="715" width="220" height="80" as="geometry" />
        </mxCell>
        <mxCell id="RGxAlzRRs4kPGmVKdSH3-43" style="edgeStyle=orthogonalEdgeStyle;rounded=0;orthogonalLoop=1;jettySize=auto;html=1;exitX=1;exitY=0.5;exitDx=0;exitDy=0;entryX=1;entryY=0.5;entryDx=0;entryDy=0;" edge="1" parent="1" source="RGxAlzRRs4kPGmVKdSH3-58" target="RGxAlzRRs4kPGmVKdSH3-7">
          <mxGeometry relative="1" as="geometry">
            <Array as="points">
              <mxPoint x="830" y="868" />
              <mxPoint x="830" y="97" />
            </Array>
          </mxGeometry>
        </mxCell>
        <mxCell id="RGxAlzRRs4kPGmVKdSH3-44" value="" style="edgeStyle=orthogonalEdgeStyle;rounded=0;orthogonalLoop=1;jettySize=auto;html=1;" edge="1" parent="1" source="RGxAlzRRs4kPGmVKdSH3-46" target="RGxAlzRRs4kPGmVKdSH3-58">
          <mxGeometry relative="1" as="geometry" />
        </mxCell>
        <mxCell id="RGxAlzRRs4kPGmVKdSH3-45" value="True" style="edgeLabel;html=1;align=center;verticalAlign=middle;resizable=0;points=[];" vertex="1" connectable="0" parent="RGxAlzRRs4kPGmVKdSH3-44">
          <mxGeometry x="-0.459" y="-1" relative="1" as="geometry">
            <mxPoint x="7" y="-1" as="offset" />
          </mxGeometry>
        </mxCell>
        <mxCell id="RGxAlzRRs4kPGmVKdSH3-46" value="cnt == 159" style="shape=hexagon;perimeter=hexagonPerimeter2;whiteSpace=wrap;html=1;fixedSize=1;" vertex="1" parent="1">
          <mxGeometry x="550" y="840" width="120" height="55" as="geometry" />
        </mxCell>
        <mxCell id="RGxAlzRRs4kPGmVKdSH3-47" style="edgeStyle=orthogonalEdgeStyle;rounded=0;orthogonalLoop=1;jettySize=auto;html=1;entryX=0.111;entryY=1.033;entryDx=0;entryDy=0;entryPerimeter=0;" edge="1" parent="1" source="RGxAlzRRs4kPGmVKdSH3-46" target="RGxAlzRRs4kPGmVKdSH3-42">
          <mxGeometry relative="1" as="geometry">
            <Array as="points">
              <mxPoint x="524" y="867" />
            </Array>
          </mxGeometry>
        </mxCell>
        <mxCell id="RGxAlzRRs4kPGmVKdSH3-48" value="False" style="edgeLabel;html=1;align=center;verticalAlign=middle;resizable=0;points=[];" vertex="1" connectable="0" parent="RGxAlzRRs4kPGmVKdSH3-47">
          <mxGeometry x="0.381" y="1" relative="1" as="geometry">
            <mxPoint as="offset" />
          </mxGeometry>
        </mxCell>
        <mxCell id="RGxAlzRRs4kPGmVKdSH3-49" value="&lt;font size=&quot;1&quot;&gt;&lt;b style=&quot;font-size: 17px;&quot;&gt;READ_RAM&lt;/b&gt;&lt;/font&gt;" style="text;html=1;align=center;verticalAlign=middle;resizable=0;points=[];autosize=1;strokeColor=none;fillColor=none;" vertex="1" parent="1">
          <mxGeometry x="490" y="940" width="120" height="30" as="geometry" />
        </mxCell>
        <mxCell id="RGxAlzRRs4kPGmVKdSH3-50" value="&lt;font size=&quot;1&quot;&gt;&lt;b style=&quot;font-size: 17px;&quot;&gt;START_READ_RAM&lt;/b&gt;&lt;/font&gt;" style="text;html=1;align=center;verticalAlign=middle;resizable=0;points=[];autosize=1;strokeColor=none;fillColor=none;" vertex="1" parent="1">
          <mxGeometry x="490" y="260" width="180" height="30" as="geometry" />
        </mxCell>
        <mxCell id="RGxAlzRRs4kPGmVKdSH3-51" value="" style="edgeStyle=orthogonalEdgeStyle;rounded=0;orthogonalLoop=1;jettySize=auto;html=1;entryX=0;entryY=0.5;entryDx=0;entryDy=0;" edge="1" parent="1" source="RGxAlzRRs4kPGmVKdSH3-10" target="RGxAlzRRs4kPGmVKdSH3-7">
          <mxGeometry relative="1" as="geometry">
            <Array as="points">
              <mxPoint x="120" y="232" />
              <mxPoint x="120" y="97" />
            </Array>
            <mxPoint x="192" y="232" as="sourcePoint" />
            <mxPoint x="120" y="197" as="targetPoint" />
          </mxGeometry>
        </mxCell>
        <mxCell id="RGxAlzRRs4kPGmVKdSH3-52" value="False" style="edgeLabel;html=1;align=center;verticalAlign=middle;resizable=0;points=[];" vertex="1" connectable="0" parent="RGxAlzRRs4kPGmVKdSH3-51">
          <mxGeometry x="-0.7786" y="-2" relative="1" as="geometry">
            <mxPoint x="-15" y="2" as="offset" />
          </mxGeometry>
        </mxCell>
        <mxCell id="RGxAlzRRs4kPGmVKdSH3-53" style="edgeStyle=orthogonalEdgeStyle;rounded=0;orthogonalLoop=1;jettySize=auto;html=1;" edge="1" parent="1" source="RGxAlzRRs4kPGmVKdSH3-54" target="RGxAlzRRs4kPGmVKdSH3-42">
          <mxGeometry relative="1" as="geometry" />
        </mxCell>
        <mxCell id="RGxAlzRRs4kPGmVKdSH3-54" value="&lt;div&gt;outdata_reg[cnt] &amp;lt;= read_data_out&lt;/div&gt;&lt;div&gt;cnt++&lt;br&gt;&lt;/div&gt;" style="whiteSpace=wrap;html=1;rounded=1;" vertex="1" parent="1">
          <mxGeometry x="540" y="580" width="220" height="80" as="geometry" />
        </mxCell>
        <mxCell id="RGxAlzRRs4kPGmVKdSH3-55" value="" style="edgeStyle=orthogonalEdgeStyle;rounded=0;orthogonalLoop=1;jettySize=auto;html=1;exitX=1;exitY=0.5;exitDx=0;exitDy=0;entryX=0;entryY=0.5;entryDx=0;entryDy=0;" edge="1" parent="1" source="RGxAlzRRs4kPGmVKdSH3-33" target="RGxAlzRRs4kPGmVKdSH3-57">
          <mxGeometry relative="1" as="geometry">
            <mxPoint x="540" y="360" as="targetPoint" />
            <mxPoint x="314" y="920" as="sourcePoint" />
            <Array as="points" />
          </mxGeometry>
        </mxCell>
        <mxCell id="RGxAlzRRs4kPGmVKdSH3-56" value="False" style="edgeLabel;html=1;align=center;verticalAlign=middle;resizable=0;points=[];" vertex="1" connectable="0" parent="RGxAlzRRs4kPGmVKdSH3-55">
          <mxGeometry x="-0.8976" y="2" relative="1" as="geometry">
            <mxPoint x="13" y="2" as="offset" />
          </mxGeometry>
        </mxCell>
        <mxCell id="RGxAlzRRs4kPGmVKdSH3-57" value="cnt = 0" style="rounded=1;whiteSpace=wrap;html=1;" vertex="1" parent="1">
          <mxGeometry x="370" y="900" width="60" height="40" as="geometry" />
        </mxCell>
        <mxCell id="RGxAlzRRs4kPGmVKdSH3-58" value="status_reg = &#39;01&#39;" style="rounded=1;whiteSpace=wrap;html=1;" vertex="1" parent="1">
          <mxGeometry x="720" y="845" width="100" height="45" as="geometry" />
        </mxCell>
      </root>
    </mxGraphModel>
  </diagram>
</mxfile>
